<?xml version="1.0" encoding="utf-8"?>
<!-- Generator: Adobe Illustrator 25.2.0, SVG Export Plug-In . SVG Version: 6.00 Build 0)  -->
<svg version="1.1" id="Layer_1" xmlns="http://www.w3.org/2000/svg" xmlns:xlink="http://www.w3.org/1999/xlink" x="0px" y="0px"
	 viewBox="0 0 236 40" style="enable-background:new 0 0 236 40;" xml:space="preserve">
<style type="text/css">
	.st0{fill:#222222;}
	.st1{fill:#E9B949;}
</style>
<g>
	<g>
		<path class="st0" d="M12.5,11.6h6.6c4.8,0,8,3.2,8,8.1c0,4.8-3.1,8.5-8.1,8.5h-6.4V11.6z M16.1,25.3h2.7c3.2,0,4.6-2.4,4.6-5.6
			c0-2.7-1.3-5.2-4.6-5.2h-2.7V25.3z"/>
		<path class="st0" d="M44.7,25c0,1.2,0.1,2.9,0.2,3.2h-3.3c-0.1-0.2-0.2-0.9-0.2-1.2c-0.5,0.7-1.3,1.5-3.5,1.5c-3,0-4.3-2-4.3-3.9
			c0-2.8,2.3-4.1,5.9-4.1c0.6,0,1.4,0,1.8,0v-0.8c0-0.9-0.3-1.8-1.9-1.8c-1.5,0-1.8,0.6-1.9,1.5h-3.3c0.2-2.2,1.6-4,5.3-4
			c3.3,0,5.1,1.3,5.1,4.3V25z M41.3,22.5c-0.3,0-0.9,0-1.4,0c-2.1,0-2.8,0.6-2.8,1.8c0,0.9,0.6,1.7,1.8,1.7c2.2,0,2.5-1.5,2.5-3.2
			V22.5z"/>
		<path class="st0" d="M54.6,15.7c1.2,4.2,2.2,7.9,2.4,9.4h0c0.3-2.1,1.6-5.8,2.6-9.4h3.4l-4.4,12.4h-3.6l-4.2-12.4H54.6z"/>
		<path class="st0" d="M69.6,10.6h3.4v3.1h-3.4V10.6z M69.6,15.7h3.4v12.4h-3.4V15.7z"/>
		<path class="st0" d="M92.4,10.6v14.1c0,1.1,0,2.3,0,3.4h-3.3c-0.1-0.4-0.1-1-0.2-1.3c-0.6,1-1.7,1.6-3.5,1.6
			c-3.1,0-5.1-2.5-5.1-6.4c0-3.8,2.1-6.6,5.6-6.6c1.8,0,2.7,0.6,3,1.2v-6H92.4z M83.8,22c0,2.4,0.9,3.7,2.6,3.7c2.4,0,2.6-2,2.6-3.8
			c0-2.1-0.3-3.7-2.5-3.7C84.7,18.2,83.8,19.6,83.8,22z"/>
	</g>
	<g>
		<path class="st1" d="M110.3,10.8h3.5v7.4c1.1-1.3,4.5-5,6.6-7.4h4.3l-6.6,6.9l6.9,9.7h-4.3l-5.1-7.4l-1.7,1.7v5.7h-3.5V10.8z"/>
		<path class="st1" d="M141.7,23.7c0,1.2,0,2.5,0,3.6h-3.4c0-0.3-0.1-1-0.1-1.4c-0.7,1.2-1.8,1.7-3.4,1.7c-2.5,0-4.1-1.5-4.1-4.6
			v-8.1h3.4v7.4c0,1.4,0.4,2.5,1.9,2.5c1.6,0,2.2-0.8,2.2-3.3v-6.6h3.4V23.7z"/>
		<path class="st1" d="M149.6,18.1c0-1.1,0-2.2,0-3.1h3.3c0.1,0.3,0.1,1.2,0.1,1.6c0.4-0.8,1.4-1.9,3.6-1.9c2.5,0,4.1,1.7,4.1,4.8
			v7.9h-3.4v-7.5c0-1.4-0.5-2.4-2-2.4c-1.5,0-2.3,0.8-2.3,3v6.9h-3.4V18.1z"/>
		<path class="st1" d="M168.7,18.1c0-1.1,0-2.2,0-3.1h3.3c0.1,0.3,0.1,1.2,0.1,1.6c0.4-0.8,1.4-1.9,3.6-1.9c2.5,0,4.1,1.7,4.1,4.8
			v7.9h-3.4v-7.5c0-1.4-0.5-2.4-2-2.4c-1.5,0-2.3,0.8-2.3,3v6.9h-3.4V18.1z"/>
		<path class="st1" d="M198.6,23.7c0,1.2,0,2.5,0,3.6h-3.4c0-0.3-0.1-1-0.1-1.4c-0.7,1.2-1.8,1.7-3.4,1.7c-2.5,0-4.1-1.5-4.1-4.6
			v-8.1h3.4v7.4c0,1.4,0.4,2.5,1.9,2.5c1.6,0,2.2-0.8,2.2-3.3v-6.6h3.4V23.7z"/>
		<path class="st1" d="M209.9,14.9v12.2c0,3.6-0.7,5.3-4.1,5.3c-0.3,0-0.8,0-1.1,0v-2.8c0.1,0,0.2,0,0.3,0c1.1,0,1.4-0.4,1.4-1.8
			V14.9H209.9z M206.5,12.9V9.8h3.4v3.1H206.5z"/>
		<path class="st1" d="M217.8,9.8h3.4v3.1h-3.4V9.8z M217.8,14.9h3.4v12.4h-3.4V14.9z"/>
	</g>
</g>
</svg>
